#!OML:ASF F:\VICON\USERDATA\INSTALL\Justin_Nancy\Justin_Nancy.ASF
:FULLY-SPECIFIED
:DEGREES
16
root 12.4726 17.2275 -24.1028 -0.26928 -4.19195 -4.25781
lowerback 7.10346 0.0953451 4.1395
upperback -0.288208 0.671713 4.59625
thorax -4.30231 0.29063 2.38035
lowerneck -16.262 -4.32494 -9.75488
upperneck 21.206 -4.46855 4.2871
head 9.73909 -2.38858 2.52106
rclavicle 1.19271e-015 -3.4191e-014
rhumerus -30.7629 -8.65219 -78.5653
rradius 37.347
rwrist 1.13068
rhand -16.1985 11.5753
rfingers 7.12502
rthumb 10.0086 -18.1667
lclavicle 1.19271e-015 -3.4191e-014
lhumerus -34.2656 14.0303 85.0293
lradius 23.4756
lwrist -7.39016
lhand -19.725 24.1478
lfingers 7.12502
lthumb 6.60525 54.0248
rfemur 5.99975 8.36936 33.2857
rtibia 20.0137
rfoot -16.4683 -6.4853
rtoes -0.718186
lfemur -34.0537 3.10945 -13.1606
ltibia 41.9853
lfoot -7.30382 10.1592
ltoes -2.64976
17
root 12.4712 17.2111 -23.8613 0.0599309 -4.24827 -4.29037
lowerback 7.07093 0.108813 4.11548
upperback -0.845775 0.721691 4.59938
thorax -4.86855 0.30875 2.39783
lowerneck -14.4682 -4.17398 -9.67593
upperneck 20.5171 -4.43584 4.20553
head 9.15877 -2.38899 2.50257
rclavicle -1.72694e-014 -3.49861e-014
rhumerus -31.2207 -7.71668 -78.6638
rradius 38.169
rwrist 0.796235
rhand -15.959 11.5697
rfingers 7.12502
rthumb 10.2397 -18.1611
lclavicle -1.72694e-014 -3.49861e-014
lhumerus -35.8873 15.2022 84.1167
lradius 23.3285
lwrist -8.21242
lhand -19.6737 24.8029
lfingers 7.12502
lthumb 6.65477 54.6784
rfemur 7.10647 8.29877 33.4603
rtibia 18.968
rfoot -16.3482 -6.7966
rtoes -2.05593
lfemur -34.4166 2.18381 -12.7425
ltibia 38.9071
lfoot -6.85355 11.0296
ltoes -3.67733
18
root 12.4692 17.1876 -23.6147 0.33074 -4.40306 -4.40012
lowerback 7.0502 0.235272 4.22523
upperback -1.11516 0.914736 4.57244
thorax -5.13999 0.397046 2.2894
lowerneck -13.9415 -4.17895 -9.66198
upperneck 20.4301 -4.50822 4.24014
head 9.03739 -2.42358 2.50961
rclavicle -4.96962e-015 -2.62396e-014
rhumerus -31.3743 -7.19082 -78.7327
rradius 39.1389
rwrist 0.651981
rhand -15.999 12.1619
rfingers 7.12502
rthumb 10.2011 -17.5707
lclavicle -4.96962e-015 -2.62396e-014
lhumerus -36.7463 16.3225 83.2713
lradius 22.7351
lwrist -9.05383
lhand -19.887 22.376
lfingers 7.12502
lthumb 6.44893 52.2578
rfemur 8.24146 8.37606 33.6917
rtibia 18.0201
rfoot -16.3583 -6.88975
rtoes -1.82594
lfemur -34.7193 1.26998 -12.1634
ltibia 35.8273
lfoot -6.36184 11.9219
ltoes -5.00299
19
root 12.4675 17.1591 -23.3588 0.457843 -4.85218 -4.56622
lowerback 7.00277 0.437511 4.37232
upperback -1.15007 1.19759 4.60739
thorax -5.15072 0.532615 2.21199
lowerneck -14.2502 -4.07884 -10.0411
upperneck 20.9493 -4.33747 4.58984
head 9.27835 -2.34018 2.71524
rclavicle 1.69712e-014 1.98785e-014
rhumerus -31.1492 -6.77863 -78.7552
rradius 39.9046
rwrist 0.522246
rhand -16.2108 12.6297
rfingers 7.12502
rthumb 9.9968 -17.1129
lclavicle 1.69712e-014 1.98785e-014
lhumerus -37.3216 17.4611 82.5646
lradius 21.9286
lwrist -9.30107
lhand -20.6216 18.9618
lfingers 7.12502
lthumb 5.7397 48.864
rfemur 9.57006 8.58206 33.9546
rtibia 17.1307
rfoot -16.3472 -6.86975
rtoes -1.32396
lfemur -34.7154 0.184698 -11.3088
ltibia 32.8124
lfoot -5.83686 12.9391
ltoes -5.18878
20
root 12.4646 17.1368 -23.1019 0.60733 -5.17641 -4.43254
lowerback 6.92721 0.595743 4.20212
upperback -1.1958 1.38911 4.56958
thorax -5.15971 0.631503 2.24662
lowerneck -14.5616 -3.97821 -10.2581
upperneck 21.4447 -4.17183 4.80434
head 9.5055 -2.26092 2.84912
rclavicle -1.76918e-014 -6.36111e-015
rhumerus -30.8002 -6.56312 -78.732
rradius 40.5214
rwrist 0.51436
rhand -15.8762 12.8422
rfingers 7.12502
rthumb 10.3196 -16.8846
lclavicle -1.76918e-014 -6.36111e-015
lhumerus -37.9861 17.9349 82.2927
lradius 21.5658
lwrist -7.87384
lhand -21.9976 19.5496
lfingers 7.12502
lthumb 4.41109 49.4836
rfemur 10.7791 8.55931 33.8382
rtibia 16.3941
rfoot -16.3084 -6.94539
rtoes -2.79404
lfemur -34.6471 -1.11952 -10.6975
ltibia 29.9122
lfoot -5.95179 13.9181
ltoes -4.81856
21
root 12.4651 17.1104 -22.841 0.809663 -5.53357 -4.27872
lowerback 6.82682 0.801217 4.12388
upperback -1.26964 1.64801 4.45475
thorax -5.18074 0.759485 2.1421
lowerneck -14.7659 -4.14988 -10.2755
upperneck 21.6107 -4.40888 4.88354
head 9.62434 -2.36364 2.8478
rclavicle -8.05078e-015 2.38542e-015
rhumerus -30.5554 -6.45442 -78.728
rradius 41.1636
rwrist 0.30272
rhand -15.6339 12.8481
rfingers 7.12502
rthumb 10.5533 -16.8669
lclavicle -8.05078e-015 2.38542e-015
lhumerus -38.635 18.2771 81.9256
lradius 21.411
lwrist -7.19011
lhand -22.5262 21.7458
lfingers 7.12502
lthumb 3.90063 51.6899
rfemur 11.9213 8.43709 33.5786
rtibia 15.7029
rfoot -16.1712 -6.55717
rtoes -3.18425
lfemur -34.7157 -2.37231 -10.0692
ltibia 27.295
lfoot -6.35061 15.0131
ltoes -5.12596
22
root 12.467 17.077 -22.5711 0.832184 -6.00742 -4.07621
lowerback 6.74666 0.99199 4.07829
upperback -1.21504 1.88073 4.28787
thorax -5.07468 0.874573 1.9678
lowerneck -14.7664 -4.3539 -10.0441
upperneck 21.3639 -4.70506 4.71195
head 9.55226 -2.49741 2.70699
rclavicle 1.23371e-014 -3.18055e-015
rhumerus -30.2389 -6.36506 -78.8291
rradius 41.8161
rwrist 0.082429
rhand -15.874 12.4432
rfingers 7.12502
rthumb 10.3217 -17.2835
lclavicle 1.23371e-014 -3.18055e-015
lhumerus -39.0445 19.8962 80.6485
lradius 20.52
lwrist -8.94582
lhand -21.7953 21.2175
lfingers 7.12502
lthumb 4.60644 51.1474
rfemur 13.3358 8.53357 33.2741
rtibia 14.9347
rfoot -15.7468 -5.86916
rtoes -1.7906
lfemur -34.6773 -3.66937 -9.43786
ltibia 25.133
lfoot -6.22171 16.1949
ltoes -6.06848
23
root 12.4679 17.0446 -22.3013 0.800299 -6.26536 -4.03724
lowerback 6.60095 1.0749 4.24155
upperback -0.880933 1.96754 4.18178
thorax -4.6329 0.9182 1.75872
lowerneck -15.1602 -4.48466 -9.89101
upperneck 21.043 -4.82853 4.52263
head 9.51442 -2.55275 2.59067
rclavicle -2.3879e-014 1.03368e-014
rhumerus -29.296 -6.30078 -79.0162
rradius 42.2631
rwrist -0.337483
rhand -16.2534 12.4513
rfingers 7.12502
rthumb 9.95571 -17.2933
lclavicle -2.3879e-014 1.03368e-014
lhumerus -38.7975 22.234 79.2837
lradius 19.2735
lwrist -10.981
lhand -21.4565 20.5809
lfingers 7.12502
lthumb 4.93355 50.5035
rfemur 14.808 8.64404 33.217
rtibia 14.1139
rfoot -15.2598 -5.49945
rtoes -2.7239
lfemur -34.7358 -4.95964 -8.67356
ltibia 23.5164
lfoot -6.3321 16.9298
ltoes -5.96655
24
root 12.4664 17.0338 -22.0325 0.884454 -6.44786 -4.04669
lowerback 6.32613 1.1493 4.43838
upperback -0.287996 2.02146 4.14189
thorax -3.85046 0.953533 1.60898
lowerneck -17.0662 -4.73703 -10.0328
upperneck 21.5657 -4.92701 4.44299
head 10.0668 -2.59929 2.54843
rclavicle -4.42296e-014 -3.97569e-014
rhumerus -27.7355 -6.54058 -79.0838
rradius 42.5412
rwrist -0.585421
rhand -16.2495 12.7526
rfingers 7.12502
rthumb 9.9595 -16.9918
lclavicle -4.42296e-014 -3.97569e-014
lhumerus -38.0061 24.1197 78.7363
lradius 18.5487
lwrist -12.2032
lhand -21.8179 21.5799
lfingers 7.12502
lthumb 4.58457 51.5103
rfemur 15.8669 8.78209 33.1858
rtibia 13.6684
rfoot -15.0531 -5.09467
rtoes -4.12409
lfemur -34.8783 -5.92084 -8.03643
ltibia 22.2552
lfoot -8.33658 17.309
ltoes -6.20282
25
root 12.4669 17.0259 -21.7589 0.97998 -6.76878 -3.84831
lowerback 5.94693 1.31704 4.23624
upperback -0.856916 2.23418 4.03812
thorax -4.23173 1.05427 1.59855
lowerneck -14.472 -4.54484 -9.99094
upperneck 21.1129 -4.93949 4.41772
head 9.4212 -2.63408 2.56594
rclavicle -1.36664e-014 1.19271e-014
rhumerus -28.8439 -6.75159 -78.8294
rradius 42.8829
rwrist -0.599023
rhand -16.4891 12.8674
rfingers 7.12502
rthumb 9.72828 -16.888
lclavicle -1.36664e-014 1.19271e-014
lhumerus -40.3064 25.3914 76.6381
lradius 17.8223
lwrist -14.0814
lhand -21.9118 18.121
lfingers 7.12502
lthumb 4.49396 48.0534
rfemur 16.6272 8.81592 32.7834
rtibia 13.7753
rfoot -14.9147 -4.52707
rtoes -5.09269
lfemur -34.8246 -6.7505 -7.75296
ltibia 21.2635
lfoot -10.2384 17.9224
ltoes 1.59962
26
root 12.4675 16.9885 -21.4884 0.819553 -7.15076 -3.4949
lowerback 5.96777 1.48376 3.92472
upperback -1.06942 2.44123 3.87804
thorax -4.46987 1.15862 1.58412
lowerneck -13.393 -4.4615 -9.91469
upperneck 20.8732 -4.96914 4.48654
head 9.13869 -2.64632 2.58857
rclavicle 2.48481e-017 9.54166e-015
rhumerus -29.1332 -7.19038 -78.6955
rradius 43.0149
rwrist -0.549732
rhand -16.8097 12.6952
rfingers 7.12502
rthumb 9.419 -17.0744
lclavicle 2.48481e-017 9.54166e-015
lhumerus -41.8337 27.1434 74.532
lradius 16.8841
lwrist -16.1312
lhand -22.2068 15.0517
lfingers 7.12502
lthumb 4.20908 44.9899
rfemur 17.4764 8.83416 32.2456
rtibia 14.3802
rfoot -14.9159 -3.99164
rtoes -7.44075
lfemur -34.4852 -6.89948 -8.05666
ltibia 20.5311
lfoot -11.0867 18.0623
ltoes 1.68906
27
root 12.4666 16.9436 -21.2211 0.478249 -7.35542 -3.2411
lowerback 6.3108 1.56647 3.79102
upperback -0.96631 2.55195 3.736
thorax -4.55504 1.21421 1.49186
lowerneck -13.813 -4.5759 -10.0705
upperneck 21.0923 -5.12254 4.78207
head 9.31683 -2.69613 2.69219
rclavicle -1.61761e-014 -1.82882e-014
rhumerus -28.9209 -7.64737 -78.6551
rradius 43.2433
rwrist -0.803577
rhand -16.9719 12.2871
rfingers 7.12502
rthumb 9.26245 -17.4895
lclavicle -1.61761e-014 -1.82882e-014
lhumerus -42.4495 28.5445 73.2183
lradius 15.9696
lwrist -17.0287
lhand -22.9759 15.5696
lfingers 7.12502
lthumb 3.46636 45.5212
rfemur 18.2239 8.87797 31.9397
rtibia 15.5653
rfoot -15.0191 -3.39121
rtoes -9.85347
lfemur -33.9016 -5.6985 -9.0093
ltibia 20.0283
lfoot -11.1858 16.6589
ltoes -3.9334
28
root 12.4713 16.9201 -20.9304 0.164185 -7.34987 -2.76036
lowerback 6.19672 1.54678 3.60739
upperback -0.738453 2.48182 3.51162
thorax -4.2493 1.18615 1.37317
lowerneck -14.2964 -4.64738 -10.2221
upperneck 21.1863 -5.18664 4.99701
head 9.45506 -2.70913 2.7772
rclavicle -3.11719e-014 -1.35174e-014
rhumerus -28.6087 -7.97504 -78.6592
rradius 43.4319
rwrist -1.07873
rhand -16.9414 12.1952
rfingers 7.12502
rthumb 9.29193 -17.58
lclavicle -3.11719e-014 -1.35174e-014
lhumerus -42.8447 29.5092 72.3495
lradius 15.4558
lwrist -17.6648
lhand -22.072 19.881
lfingers 7.12502
lthumb 4.33927 49.8166
rfemur 18.659 8.61408 31.2674
rtibia 17.2292
rfoot -14.9477 -2.24898
rtoes -10.2949
lfemur -33.124 -3.9074 -10.6774
ltibia 19.7368
lfoot -11.0479 14.2587
ltoes -7.74572
